<?xml version="1.0" encoding="UTF-8" standalone="no"?>
<!-- Created with Inkscape (http://www.inkscape.org/) -->

<svg
   xmlns:dc="http://purl.org/dc/elements/1.1/"
   xmlns:cc="http://creativecommons.org/ns#"
   xmlns:rdf="http://www.w3.org/1999/02/22-rdf-syntax-ns#"
   xmlns:svg="http://www.w3.org/2000/svg"
   xmlns="http://www.w3.org/2000/svg"
   version="1.1"
   width="300.25"
   height="300.21875"
   id="svg2">
  <defs
     id="defs4" />
  <metadata
     id="metadata7">
    <rdf:RDF>
      <cc:Work
         rdf:about="">
        <dc:format>image/svg+xml</dc:format>
        <dc:type
           rdf:resource="http://purl.org/dc/dcmitype/StillImage" />
        <dc:title></dc:title>
      </cc:Work>
    </rdf:RDF>
  </metadata>
  <g
     transform="translate(-139.875,-52.25)"
     id="layer1">
    <path
       d="m 256.66667,169.02885 0,44.44444 44.44444,0 0,-44.44444 z m -44.44445,-44.44445 0,-22.22222 44.44445,0 0,22.22222 44.44444,0 0,-22.22222 44.44445,0 0,22.22222 22.22222,0 0,44.44445 -22.22222,0 0,44.44444 22.22222,0 0,44.44445 -22.22222,0 0,22.22222 -44.44445,0 0,-22.22222 -44.44444,0 0,22.22222 -44.44445,0 0,-22.22222 -22.22222,0 0,-44.44445 22.22222,0 0,-44.44444 -22.22222,0 0,-44.44445 z"
       id="path3783"
       style="fill:#eec73e;stroke:#000000;stroke-width:0;stroke-linecap:butt;stroke-linejoin:miter;stroke-miterlimit:4;stroke-opacity:1;stroke-dasharray:none" />
    <path
       d="m 190,257.91774 22.22222,22.22222 0,-22.22222 z"
       id="path3786"
       style="fill:#f44800;stroke:#000000;stroke-width:0;stroke-linecap:butt;stroke-linejoin:miter;stroke-miterlimit:4;stroke-opacity:1;stroke-dasharray:none" />
    <path
       d="m 212.22222,280.13996 22.22222,22.22222 44.44445,0 -22.22222,-22.22222 z"
       id="path3788"
       style="fill:#f44800;stroke:#000000;stroke-width:0;stroke-linecap:butt;stroke-linejoin:miter;stroke-miterlimit:4;stroke-opacity:1;stroke-dasharray:none" />
    <path
       d="m 256.66667,257.91774 22.22222,22.22222 0,22.22222 -22.22222,-22.22222 z"
       id="path3790"
       style="fill:#f0a513;stroke:#000000;stroke-width:0;stroke-linecap:butt;stroke-linejoin:miter;stroke-miterlimit:4;stroke-opacity:1;stroke-dasharray:none" />
    <path
       d="m 256.66667,257.91774 22.22222,22.22222 22.22222,0 0,-22.22222 z"
       id="path3792"
       style="fill:#f44800;stroke:#000000;stroke-width:0;stroke-linecap:butt;stroke-linejoin:miter;stroke-miterlimit:4;stroke-opacity:1;stroke-dasharray:none" />
    <path
       d="m 301.11111,280.13996 22.22222,22.22222 44.44445,0 -22.22222,-22.22222 z"
       id="path3794"
       style="fill:#f44800;stroke:#000000;stroke-width:0;stroke-linecap:butt;stroke-linejoin:miter;stroke-miterlimit:4;stroke-opacity:1;stroke-dasharray:none" />
    <path
       d="m 345.55556,257.91774 22.22222,22.22222 0,22.22222 -22.22222,-22.22222 0,-22.22222 z"
       id="path3796"
       style="fill:#f0a513;stroke:#000000;stroke-width:0;stroke-linecap:butt;stroke-linejoin:miter;stroke-miterlimit:4;stroke-opacity:1;stroke-dasharray:none" />
    <path
       d="m 345.55556,257.91774 22.22222,22.22222 22.22222,0 -22.22222,-22.22222 z"
       id="path3798"
       style="fill:#f44800;stroke:#000000;stroke-width:0;stroke-linecap:butt;stroke-linejoin:miter;stroke-miterlimit:4;stroke-opacity:1;stroke-dasharray:none" />
    <path
       d="M 367.77778,213.47329 390,235.69551 l 0,44.44445 -22.22222,-22.22222 z"
       id="path3800"
       style="fill:#f0a513;stroke:#000000;stroke-width:0;stroke-linecap:butt;stroke-linejoin:miter;stroke-miterlimit:4;stroke-opacity:1;stroke-dasharray:none" />
    <path
       d="m 256.66667,102.36218 22.22222,22.22222 -22.22222,0 z"
       id="path3802"
       style="fill:#f0a513;stroke:#000000;stroke-width:0;stroke-linecap:butt;stroke-linejoin:miter;stroke-miterlimit:4;stroke-opacity:1;stroke-dasharray:none" />
    <path
       d="m 345.55556,102.36218 22.22222,22.22222 -22.22222,0 z"
       id="path3804"
       style="fill:#f0a513;stroke:#000000;stroke-width:0;stroke-linecap:butt;stroke-linejoin:miter;stroke-miterlimit:4;stroke-opacity:1;stroke-dasharray:none" />
    <path
       d="M 367.77778,169.02885 390,191.25107 390,146.80662 367.77778,124.5844 z"
       id="path3806"
       style="fill:#f0a513;stroke:#000000;stroke-width:0;stroke-linecap:butt;stroke-linejoin:miter;stroke-miterlimit:4;stroke-opacity:1;stroke-dasharray:none" />
    <path
       d="m 345.55556,169.02885 22.22222,22.22222 22.22222,0 -22.22222,-22.22222 z"
       id="path3808"
       style="fill:#f44800;stroke:#000000;stroke-width:0;stroke-linecap:butt;stroke-linejoin:miter;stroke-miterlimit:4;stroke-opacity:1;stroke-dasharray:none" />
    <path
       d="m 345.55556,169.02885 22.22222,22.22222 0,22.22222 -22.22222,0 z"
       id="path3810"
       style="fill:#f0a513;stroke:#000000;stroke-width:0;stroke-linecap:butt;stroke-linejoin:miter;stroke-miterlimit:4;stroke-opacity:1;stroke-dasharray:none" />
    <path
       d="m 256.66667,169.02886 22.22222,22.22222 22.22222,0 0,-22.22222 z"
       id="path3812"
       style="fill:#f44800;stroke:#000000;stroke-width:0;stroke-linecap:butt;stroke-linejoin:miter;stroke-miterlimit:4;stroke-opacity:1;stroke-dasharray:none" />
    <path
       d="m 256.66667,169.02885 0,44.44444 22.22222,0 0,-22.22222 -22.22222,-22.22222 z"
       id="path3814"
       style="fill:#f0a513;stroke:#000000;stroke-width:0;stroke-linecap:butt;stroke-linejoin:miter;stroke-miterlimit:4;stroke-opacity:1;stroke-dasharray:none" />
    <path
       d="m 190,169.02885 22.22222,22.22222 0,-22.22222 -22.22222,0 z"
       id="path3816"
       style="fill:#f44800;stroke:#000000;stroke-width:0;stroke-linecap:butt;stroke-linejoin:miter;stroke-miterlimit:4;stroke-opacity:1;stroke-dasharray:none" />
  </g>
</svg>
