<?xml version="1.0" encoding="utf-8"?>
<svg version="1.1" xmlns="http://www.w3.org/2000/svg" xmlns:xlink="http://www.w3.org/1999/xlink"
     width="132" height="132"
     viewBox="-10 0 349 205">
    <g fill="#ffffff">
        <g id="SvgjsG1114" featurekey="symbol1" fill="#1e7896"
           transform="matrix(1.5909090909090908,0,0,1.5909090909090908,129,10)">
            <g>
                <path d="M33.8,14.8C29,7.3,24.2,1.2,24,0.9C23.5,0.3,22.8,0,22,0s-1.5,0.3-2,0.9c-0.2,0.3-5,6.3-9.9,13.8C3.4,25.1,0,32.9,0,37.9C0,50.1,9.9,60,22,60s22-9.9,22-22.1C44,32.9,40.6,25.1,33.8,14.8z M22.5,50c-1.4,0-2.5-1.1-2.5-2.5s1.1-2.5,2.5-2.5c3.6,0,6.5-2.9,6.5-6.5c0-1.4,1.1-2.5,2.5-2.5s2.5,1.1,2.5,2.5C34,44.8,28.8,50,22.5,50z"></path>
            </g>
        </g>
        <g id="SvgjsG1115" featurekey="text1" fill="#1e7896"
           transform="matrix(3.906249117184009,0,0,3.906249117184009,-5.781250630582851,100.31250739237126)">
            <path d="M3.04 8.88 l0 9.88 l4.26 -4.12 l2.22 0 l-4.52 4.26 l4.98 5.1 l-2.3 0 l-4.64 -4.92 l0 4.92 l-1.56 0 l0 -15.12 l1.56 0 z M15.780000000000001 18.48 l0 1.44 l-4.9 0 l0 -1.44 l4.9 0 z M22.740000000000002 14.4 q0.36 0 0.64 0.1 l-0.1 1.58 q-0.44 -0.12 -0.84 -0.12 q-1.36 0 -2.05 0.89 t-0.69 2.51 l0 4.64 l-1.56 0 l0 -7.28 q0 -0.28 -0.08 -2.08 l1.48 0 q0.04 1.4 0.04 1.54 l0.04 0 q0.38 -0.8 1.23 -1.29 t1.89 -0.49 z M29.439999999999998 14.4 q2.08 0 3.25 1.31 t1.19 3.71 l0 0.38 l-7.56 0 q0.12 1.3 0.98 2.14 t2.1 0.86 q1.9 0 2.96 -1.42 l1.18 0.92 q-0.74 0.96 -1.74 1.45 t-2.4 0.49 q-2.14 0 -3.44 -1.39 t-1.32 -3.53 q0 -2.12 1.33 -3.5 t3.47 -1.42 z M32.2 18.48 q-0.06 -1.22 -0.79 -1.93 t-2.05 -0.71 q-1.2 0 -2.02 0.68 t-1.02 1.96 l5.88 0 z M45.64 8.88 l0 15.12 l-1.56 0 l0 -1.66 l-0.04 0 q-0.48 0.9 -1.46 1.4 t-2.14 0.5 q-1.98 0 -3.31 -1.41 t-1.37 -3.51 q0 -2.14 1.37 -3.52 t3.55 -1.4 q2.02 0 3.36 1.6 l0.04 0 l0 -7.12 l1.56 0 z M37.44 19.32 q0 1.54 0.93 2.5 t2.39 0.98 q1.46 0 2.37 -0.96 t0.95 -2.52 q0 -1.52 -0.93 -2.5 t-2.41 -0.98 q-1.44 0 -2.35 0.97 t-0.95 2.51 z M50.08 14.64 l0 5.68 q0 1.08 0.51 1.77 t1.63 0.71 q1.44 0 2.17 -0.96 t0.73 -2.56 l0 -4.64 l1.56 0 l0 7.28 q0.02 0.56 0.08 2.08 l-1.48 0 q-0.02 -0.96 -0.04 -1.54 l-0.04 0 q-0.36 0.78 -1.21 1.28 t-1.93 0.5 q-1.72 -0.02 -2.63 -1.03 t-0.91 -2.71 l0 -5.86 l1.56 0 z M63.959999999999994 14.4 q2.22 0 3.58 1.48 l-1.24 1.1 q-0.94 -1.14 -2.36 -1.14 q-1.46 0 -2.31 0.95 t-0.85 2.53 q0 1.5 0.91 2.48 t2.25 1 q1.54 0 2.38 -1.16 l1.16 1.1 q-1.3 1.48 -3.54 1.5 q-2.14 -0.02 -3.47 -1.36 t-1.37 -3.56 q0.02 -2.24 1.4 -3.58 t3.46 -1.34 z M73.53999999999999 14.4 q2.08 0 3.25 1.31 t1.19 3.71 l0 0.38 l-7.56 0 q0.12 1.3 0.98 2.14 t2.1 0.86 q1.9 0 2.96 -1.42 l1.18 0.92 q-0.74 0.96 -1.74 1.45 t-2.4 0.49 q-2.14 0 -3.44 -1.39 t-1.32 -3.53 q0 -2.12 1.33 -3.5 t3.47 -1.42 z M76.3 18.48 q-0.06 -1.22 -0.79 -1.93 t-2.05 -0.71 q-1.2 0 -2.02 0.68 t-1.02 1.96 l5.88 0 z M85 14.4 q0.36 0 0.64 0.1 l-0.1 1.58 q-0.44 -0.12 -0.84 -0.12 q-1.36 0 -2.05 0.89 t-0.69 2.51 l0 4.64 l-1.56 0 l0 -7.28 q0 -0.28 -0.08 -2.08 l1.48 0 q0.04 1.4 0.04 1.54 l0.04 0 q0.38 -0.8 1.23 -1.29 t1.89 -0.49 z"></path>
        </g>
    </g>
</svg>