<svg xmlns="http://www.w3.org/2000/svg" width="300.25" height="300.219"><path d="M116.792 116.779v44.444h44.444V116.78zM72.347 72.334V50.112h44.445v22.222h44.444V50.112h44.445v22.222h22.222v44.445H205.68v44.444h22.222v44.445H205.68v22.222h-44.445v-22.222h-44.444v22.222H72.347v-22.222H50.125v-44.445h22.222V116.78H50.125V72.334z" fill="#eec73e"/><path d="M50.125 205.668l22.222 22.222v-22.222z" fill="#f44800"/><path d="M72.347 227.89l22.222 22.222h44.445l-22.222-22.222z" fill="#f44800"/><path d="M116.792 205.668l22.222 22.222v22.222l-22.222-22.222z" fill="#f0a513"/><path d="M116.792 205.668l22.222 22.222h22.222v-22.222z" fill="#f44800"/><path d="M161.236 227.89l22.222 22.222h44.445L205.68 227.89z" fill="#f44800"/><path d="M205.68 205.668l22.223 22.222v22.222L205.68 227.89v-22.222z" fill="#f0a513"/><path d="M205.68 205.668l22.223 22.222h22.222l-22.222-22.222z" fill="#f44800"/><path d="M227.903 161.223l22.222 22.223v44.444l-22.222-22.222zM116.792 50.112l22.222 22.222h-22.222zm88.888 0l22.223 22.222H205.68zm22.223 66.667L250.125 139V94.557l-22.222-22.223z" fill="#f0a513"/><path d="M205.68 116.779L227.904 139h22.222l-22.222-22.222z" fill="#f44800"/><path d="M205.68 116.779L227.904 139v22.222H205.68z" fill="#f0a513"/><path d="M116.792 116.779L139.014 139h22.222v-22.22z" fill="#f44800"/><path d="M116.792 116.779v44.444h22.222v-22.222l-22.222-22.222z" fill="#f0a513"/><path d="M50.125 116.779L72.347 139v-22.22H50.125z" fill="#f44800"/></svg>